<svg width="22" height="21" viewBox="0 0 22 21" fill="none" xmlns="http://www.w3.org/2000/svg">
<g clip-path="url(#clip0_291_1979)">
<path d="M9.625 5.25V6.5625H5.5V5.25H9.625ZM5.5 9.1875V7.875H9.625V9.1875H5.5ZM5.5 11.8125V10.5H8.25V11.8125H5.5ZM4.125 5.25V6.5625H2.75V5.25H4.125ZM4.125 7.875V9.1875H2.75V7.875H4.125ZM2.75 11.8125V10.5H4.125V11.8125H2.75ZM1.375 1.3125V19.6875H8.25V21H0V0H11.9775L17.875 5.62939V7.875H16.5V6.5625H11V1.3125H1.375ZM12.375 2.24561V5.25H15.5225L12.375 2.24561ZM19.25 10.5H22V21H9.625V10.5H12.375V9.1875H13.75V10.5H17.875V9.1875H19.25V10.5ZM20.625 19.6875V14.4375H11V19.6875H20.625ZM20.625 13.125V11.8125H11V13.125H20.625Z" fill="black" fill-opacity="0.71"/>
</g>
<defs>
<clipPath id="clip0_291_1979">
<rect width="22" height="21" fill="white"/>
</clipPath>
</defs>
</svg>
