<svg width="24" height="24" viewBox="0 0 24 24" fill="none" xmlns="http://www.w3.org/2000/svg">
<path fill-rule="evenodd" clip-rule="evenodd" d="M15.668 7C15.668 6.80109 15.747 6.61032 15.8876 6.46967C16.0283 6.32902 16.2191 6.25 16.418 6.25H22C22.1989 6.25 22.3896 6.32902 22.5303 6.46967C22.671 6.61032 22.75 6.80109 22.75 7V12.546C22.75 12.7449 22.671 12.9357 22.5303 13.0763C22.3896 13.217 22.1989 13.296 22 13.296C21.8011 13.296 21.6103 13.217 21.4696 13.0763C21.329 12.9357 21.25 12.7449 21.25 12.546V7.75H16.418C16.2191 7.75 16.0283 7.67098 15.8876 7.53033C15.747 7.38968 15.668 7.19891 15.668 7Z" fill="black"/>
<path opacity="0.5" d="M20.1872 7.75L14.0922 13.803C13.5782 14.313 13.2452 14.643 12.9672 14.853C12.7072 15.05 12.5862 15.072 12.5052 15.072C12.4252 15.072 12.3032 15.05 12.0432 14.852C11.7662 14.642 11.4332 14.313 10.9192 13.802L10.6452 13.53C10.1752 13.063 9.77116 12.66 9.40416 12.382C9.01016 12.083 8.57316 11.857 8.03416 11.857C7.49516 11.857 7.05816 12.084 6.66416 12.383C6.29716 12.662 5.89416 13.065 5.42416 13.532L1.47116 17.469C1.39735 17.5375 1.3381 17.6202 1.29694 17.7121C1.25578 17.8041 1.23355 17.9033 1.23159 18.004C1.22962 18.1047 1.24796 18.2048 1.28551 18.2982C1.32305 18.3917 1.37903 18.4766 1.45012 18.548C1.5212 18.6193 1.60592 18.6756 1.69924 18.7135C1.79255 18.7514 1.89254 18.7701 1.99324 18.7686C2.09395 18.767 2.1933 18.7451 2.28537 18.7043C2.37745 18.6635 2.46036 18.6046 2.52916 18.531L6.44816 14.629C6.96216 14.118 7.29516 13.789 7.57216 13.577C7.83216 13.38 7.95416 13.357 8.03416 13.357C8.11416 13.357 8.23716 13.379 8.49716 13.577C8.77516 13.787 9.10716 14.117 9.62216 14.628L9.89616 14.901C10.3662 15.367 10.7692 15.769 11.1362 16.047C11.5302 16.346 11.9662 16.572 12.5052 16.572C13.0432 16.572 13.4802 16.346 13.8742 16.048C14.2412 15.769 14.6452 15.368 15.1142 14.901L21.2502 8.81V7.75H20.1872Z" fill="black"/>
</svg>
