<svg width="24" height="24" viewBox="0 0 24 24" fill="none" xmlns="http://www.w3.org/2000/svg">
<path d="M4.27002 19.54H8.14002V21.75H4.27002V19.54ZM4.27002 19.54V3.8C4.27002 2.68 9.24502 2.25 12 2.25C14.72 2.25 19.73 2.68 19.73 3.8V19.54M4.27002 19.54H19.73M19.73 19.54H15.86V21.75H19.73V19.54ZM3.64502 5.5H4.24502V9.47C3.92232 9.46473 3.61485 9.33181 3.38994 9.10034C3.16503 8.86888 3.04101 8.55772 3.04502 8.235V6.11C3.04499 5.94994 3.10789 5.79628 3.22013 5.68216C3.33237 5.56805 3.48497 5.50262 3.64502 5.5ZM20.355 5.5H19.755V9.47C20.0777 9.46473 20.3852 9.33181 20.6101 9.10034C20.835 8.86888 20.959 8.55772 20.955 8.235V6.11C20.955 5.94994 20.8921 5.79628 20.7799 5.68216C20.6677 5.56805 20.5151 5.50262 20.355 5.5ZM12 4.365C14.73 4.365 16.7633 4.57 18.1 4.98C18.196 5.01352 18.2795 5.07551 18.3393 5.15769C18.3992 5.23988 18.4326 5.33836 18.435 5.44V13.94C18.435 14.0726 18.3823 14.1998 18.2886 14.2936C18.1948 14.3873 18.0676 14.44 17.935 14.44H6.07002C5.93741 14.44 5.81023 14.3873 5.71646 14.2936C5.62269 14.1998 5.57002 14.0726 5.57002 13.94V5.44C5.57246 5.33836 5.60584 5.23988 5.66569 5.15769C5.72555 5.07551 5.80903 5.01352 5.90502 4.98C7.23835 4.57 9.27002 4.365 12 4.365ZM6.79502 15.75C7.12654 15.75 7.44448 15.8817 7.6789 16.1161C7.91332 16.3505 8.04502 16.6685 8.04502 17C8.04502 17.3315 7.91332 17.6495 7.6789 17.8839C7.44448 18.1183 7.12654 18.25 6.79502 18.25C6.46834 18.2447 6.15706 18.1102 5.92934 17.876C5.70161 17.6417 5.57601 17.3267 5.58002 17C5.57601 16.6733 5.70161 16.3583 5.92934 16.124C6.15706 15.8898 6.46834 15.7553 6.79502 15.75ZM17.23 15.75C17.5615 15.75 17.8795 15.8817 18.1139 16.1161C18.3483 16.3505 18.48 16.6685 18.48 17C18.48 17.3315 18.3483 17.6495 18.1139 17.8839C17.8795 18.1183 17.5615 18.25 17.23 18.25C17.067 18.2494 16.9057 18.2164 16.7555 18.1531C16.6052 18.0898 16.469 17.9974 16.3546 17.8812C16.2403 17.765 16.1501 17.6273 16.0892 17.4761C16.0284 17.3248 15.998 17.163 16 17C15.998 16.837 16.0284 16.6752 16.0892 16.5239C16.1501 16.3727 16.2403 16.235 16.3546 16.1188C16.469 16.0026 16.6052 15.9102 16.7555 15.8469C16.9057 15.7836 17.067 15.7506 17.23 15.75Z" stroke="black" stroke-opacity="0.79" stroke-width="0.5" stroke-linecap="round" stroke-linejoin="round"/>
</svg>
