<svg width="24" height="24" viewBox="0 0 24 24" fill="none" xmlns="http://www.w3.org/2000/svg">
<path d="M20.7489 12L21.8529 10.092C21.9856 9.86244 22.0217 9.58958 21.9532 9.33343C21.8848 9.07727 21.7174 8.85878 21.4879 8.726L19.5779 7.622V5.422C19.5779 5.15678 19.4725 4.90243 19.285 4.71489C19.0975 4.52735 18.8431 4.422 18.5779 4.422H16.3789L15.2759 2.513C15.1433 2.28333 14.925 2.11571 14.6689 2.047C14.542 2.013 14.4097 2.00433 14.2794 2.02149C14.1492 2.03865 14.0236 2.0813 13.9099 2.147L11.9999 3.251L10.0899 2.146C9.86021 2.01339 9.58726 1.97746 9.33109 2.0461C9.07491 2.11474 8.8565 2.28232 8.72388 2.512L7.61988 4.422H5.42088C5.15567 4.422 4.90131 4.52735 4.71378 4.71489C4.52624 4.90243 4.42088 5.15678 4.42088 5.422V7.621L2.51088 8.725C2.39711 8.79074 2.29741 8.87827 2.21749 8.98257C2.13756 9.08687 2.07898 9.2059 2.04508 9.33285C2.01118 9.45981 2.00264 9.5922 2.01993 9.72246C2.03723 9.85272 2.08003 9.97829 2.14588 10.092L3.24988 12L2.14588 13.908C2.01387 14.1378 1.97806 14.4104 2.04624 14.6665C2.11443 14.9226 2.28109 15.1413 2.50988 15.275L4.41988 16.379V18.578C4.41988 18.8432 4.52524 19.0976 4.71278 19.2851C4.90031 19.4726 5.15467 19.578 5.41988 19.578H7.61988L8.72388 21.488C8.81242 21.6393 8.93882 21.765 9.09066 21.8527C9.2425 21.9404 9.41455 21.987 9.58988 21.988C9.76388 21.988 9.93688 21.942 10.0909 21.853L11.9989 20.749L13.9089 21.853C14.1384 21.9857 14.4113 22.0218 14.6675 21.9533C14.9236 21.8849 15.1421 21.7175 15.2749 21.488L16.3779 19.578H18.5769C18.8421 19.578 19.0965 19.4726 19.284 19.2851C19.4715 19.0976 19.5769 18.8432 19.5769 18.578V16.379L21.4869 15.275C21.6007 15.2092 21.7004 15.1217 21.7803 15.0174C21.8602 14.9131 21.9188 14.7941 21.9527 14.6671C21.9866 14.5402 21.9951 14.4078 21.9778 14.2775C21.9605 14.1473 21.9177 14.0217 21.8519 13.908L20.7489 12ZM9.49888 6.99C9.89684 6.99013 10.2784 7.14834 10.5598 7.42984C10.8411 7.71133 10.999 8.09304 10.9989 8.491C10.9988 8.88895 10.8405 9.27056 10.559 9.55186C10.2776 9.83317 9.89584 9.99113 9.49788 9.991C9.09993 9.99086 8.71832 9.83265 8.43702 9.55116C8.15571 9.26966 7.99775 8.88795 7.99788 8.49C7.99802 8.09204 8.15623 7.71043 8.43772 7.42913C8.71922 7.14783 9.10093 6.98986 9.49888 6.99ZM9.79888 16.59L8.19888 15.391L14.1989 7.391L15.7989 8.59L9.79888 16.59ZM14.4989 16.99C14.3018 16.9899 14.1067 16.9511 13.9247 16.8756C13.7427 16.8001 13.5773 16.6895 13.438 16.5502C13.2987 16.4108 13.1883 16.2453 13.1129 16.0633C13.0376 15.8812 12.9988 15.686 12.9989 15.489C12.999 15.2919 13.0378 15.0968 13.1133 14.9148C13.1888 14.7328 13.2993 14.5674 13.4387 14.4281C13.5781 14.2888 13.7436 14.1784 13.9256 14.103C14.1077 14.0277 14.3028 13.9889 14.4999 13.989C14.8978 13.9891 15.2794 14.1473 15.5608 14.4288C15.8421 14.7103 16 15.092 15.9999 15.49C15.9998 15.888 15.8415 16.2696 15.56 16.5509C15.2786 16.8322 14.8968 16.9901 14.4989 16.99Z" fill="black" fill-opacity="0.74"/>
</svg>
