<svg width="24" height="24" viewBox="0 0 24 24" fill="none" xmlns="http://www.w3.org/2000/svg">
<path d="M17.83 2.25H6.17C5.635 2.25 5.19 2.25 4.825 2.28C4.445 2.31 4.089 2.378 3.752 2.55C3.23445 2.81367 2.81367 3.23445 2.55 3.752C2.378 4.089 2.31 4.445 2.28 4.825C2.25 5.19 2.25 5.635 2.25 6.17V21C2.25 21.1989 2.32902 21.3897 2.46967 21.5303C2.61032 21.671 2.80109 21.75 3 21.75C3.19891 21.75 3.38968 21.671 3.53033 21.5303C3.67098 21.3897 3.75 21.1989 3.75 21V6.2C3.75 5.628 3.75 5.243 3.775 4.947C3.798 4.66 3.84 4.523 3.886 4.433C4.00591 4.19741 4.19741 4.00591 4.433 3.886C4.523 3.84 4.66 3.798 4.947 3.775C5.243 3.751 5.627 3.75 6.2 3.75H17.8C18.372 3.75 18.757 3.75 19.052 3.775C19.34 3.798 19.477 3.84 19.567 3.886C19.803 4.006 19.994 4.197 20.114 4.433C20.16 4.523 20.202 4.66 20.225 4.947C20.249 5.243 20.25 5.627 20.25 6.2V21C20.25 21.1989 20.329 21.3897 20.4697 21.5303C20.6103 21.671 20.8011 21.75 21 21.75C21.1989 21.75 21.3897 21.671 21.5303 21.5303C21.671 21.3897 21.75 21.1989 21.75 21V6.17C21.75 5.635 21.75 5.19 21.72 4.825C21.69 4.445 21.622 4.089 21.45 3.752C21.1869 3.23475 20.7668 2.81401 20.25 2.55C19.912 2.378 19.556 2.31 19.176 2.28C18.811 2.25 18.365 2.25 17.83 2.25Z" fill="#8F9BB3"/>
<path d="M6.5 7.5C6.5 7.23478 6.60536 6.98043 6.79289 6.79289C6.98043 6.60536 7.23478 6.5 7.5 6.5H16.5C16.7652 6.5 17.0196 6.60536 17.2071 6.79289C17.3946 6.98043 17.5 7.23478 17.5 7.5C17.5 7.76522 17.3946 8.01957 17.2071 8.20711C17.0196 8.39464 16.7652 8.5 16.5 8.5H7.5C7.23478 8.5 6.98043 8.39464 6.79289 8.20711C6.60536 8.01957 6.5 7.76522 6.5 7.5Z" fill="#8F9BB3"/>
<path fill-rule="evenodd" clip-rule="evenodd" d="M12.66 10.01C12.775 10 12.908 10 13.03 10H14.97C15.092 10 15.225 10 15.34 10.01C15.47 10.02 15.64 10.046 15.818 10.136C16.053 10.256 16.244 10.447 16.364 10.683C16.454 10.859 16.48 11.031 16.491 11.161C16.501 11.275 16.5 11.408 16.5 11.53V12.72C16.5 12.842 16.5 12.975 16.49 13.09C16.48 13.22 16.454 13.39 16.364 13.568C16.2442 13.8031 16.0531 13.9942 15.818 14.114C15.641 14.204 15.469 14.23 15.339 14.241C15.225 14.251 15.092 14.25 14.97 14.25H13.03C12.908 14.25 12.775 14.25 12.66 14.24C12.4941 14.229 12.3318 14.1862 12.182 14.114C11.947 13.9942 11.7558 13.8031 11.636 13.568C11.5634 13.418 11.5203 13.2553 11.509 13.089C11.499 12.975 11.5 12.842 11.5 12.72V11.53C11.5 11.408 11.5 11.275 11.51 11.16C11.52 11.03 11.546 10.86 11.636 10.682C11.7561 10.4468 11.9476 10.2556 12.183 10.136C12.359 10.046 12.531 10.02 12.661 10.009M15 11.5H13V12.75H15V11.5Z" fill="#8F9BB3"/>
<path d="M8.25 10.25C8.05109 10.25 7.86032 10.329 7.71967 10.4697C7.57902 10.6103 7.5 10.8011 7.5 11C7.5 11.1989 7.57902 11.3897 7.71967 11.5303C7.86032 11.671 8.05109 11.75 8.25 11.75H9.75C9.94891 11.75 10.1397 11.671 10.2803 11.5303C10.421 11.3897 10.5 11.1989 10.5 11C10.5 10.8011 10.421 10.6103 10.2803 10.4697C10.1397 10.329 9.94891 10.25 9.75 10.25H8.25ZM7.5 13.25C7.5 13.0511 7.57902 12.8603 7.71967 12.7197C7.86032 12.579 8.05109 12.5 8.25 12.5H9.75C9.94891 12.5 10.1397 12.579 10.2803 12.7197C10.421 12.8603 10.5 13.0511 10.5 13.25C10.5 13.4489 10.421 13.6397 10.2803 13.7803C10.1397 13.921 9.94891 14 9.75 14H8.25C8.05109 14 7.86032 13.921 7.71967 13.7803C7.57902 13.6397 7.5 13.4489 7.5 13.25ZM8.25 15.25C8.05109 15.25 7.86032 15.329 7.71967 15.4697C7.57902 15.6103 7.5 15.8011 7.5 16C7.5 16.1989 7.57902 16.3897 7.71967 16.5303C7.86032 16.671 8.05109 16.75 8.25 16.75H15.75C15.9489 16.75 16.1397 16.671 16.2803 16.5303C16.421 16.3897 16.5 16.1989 16.5 16C16.5 15.8011 16.421 15.6103 16.2803 15.4697C16.1397 15.329 15.9489 15.25 15.75 15.25H8.25ZM7.5 18.5C7.5 18.3011 7.57902 18.1103 7.71967 17.9697C7.86032 17.829 8.05109 17.75 8.25 17.75H15.75C15.9489 17.75 16.1397 17.829 16.2803 17.9697C16.421 18.1103 16.5 18.3011 16.5 18.5C16.5 18.6989 16.421 18.8897 16.2803 19.0303C16.1397 19.171 15.9489 19.25 15.75 19.25H8.25C8.05109 19.25 7.86032 19.171 7.71967 19.0303C7.57902 18.8897 7.5 18.6989 7.5 18.5Z" fill="#8F9BB3"/>
</svg>
