<svg width="26" height="24" viewBox="0 0 26 24" fill="none" xmlns="http://www.w3.org/2000/svg">
<path fill-rule="evenodd" clip-rule="evenodd" d="M13.4606 3.2H12.2541L11.5631 5.778L10.8699 5.978C10.4659 6.09417 10.0745 6.24551 9.70092 6.43L9.05914 6.747L6.61628 5.379L5.76342 6.176L7.22914 8.456L6.88949 9.054C6.69145 9.40268 6.52895 9.76795 6.40414 10.145L6.19092 10.792L3.42878 11.437V12.563L6.19092 13.208L6.40521 13.855C6.52878 14.2337 6.69021 14.5973 6.88949 14.946L7.22914 15.545L5.76342 17.825L6.61735 18.621L9.06021 17.253L9.70092 17.57C10.0745 17.7553 10.4641 17.9063 10.8699 18.023L11.5631 18.222L12.2541 20.8H13.4606L14.1516 18.222L14.8449 18.022C15.2488 17.9058 15.6402 17.7545 16.0138 17.57L16.6556 17.253L19.0984 18.621L19.9513 17.824L18.4856 15.544L18.8252 14.946C19.0238 14.5973 19.1856 14.2337 19.3106 13.855L19.5238 13.208L22.2859 12.563V11.437L19.5238 10.792L19.3095 10.145C19.185 9.76798 19.0229 9.40271 18.8252 9.054L18.4856 8.455L19.9513 6.175L19.0974 5.379L16.6545 6.747L16.0138 6.43C15.6402 6.24516 15.2488 6.0935 14.8449 5.977L14.1516 5.778L13.4606 3.2ZM16.6159 5.37L18.5799 4.27C18.7846 4.15536 19.0246 4.10786 19.2616 4.13504C19.4986 4.16221 19.7191 4.26251 19.8881 4.42L20.9788 5.438C21.1475 5.5957 21.255 5.80149 21.2841 6.02271C21.3132 6.24392 21.2623 6.46787 21.1395 6.659L19.9609 8.492C20.1966 8.90533 20.3895 9.33867 20.5395 9.792L22.7606 10.311C22.9923 10.3652 23.1979 10.49 23.3449 10.6658C23.4918 10.8415 23.5716 11.0581 23.5716 11.281V12.719C23.5716 12.9419 23.4918 13.1585 23.3449 13.3342C23.1979 13.51 22.9923 13.6348 22.7606 13.689L20.5395 14.208C20.3895 14.6613 20.1966 15.0947 19.9609 15.508L21.1395 17.341C21.2623 17.5321 21.3132 17.7561 21.2841 17.9773C21.255 18.1985 21.1475 18.4043 20.9788 18.562L19.8881 19.58C19.7191 19.7375 19.4986 19.8378 19.2616 19.865C19.0246 19.8921 18.7846 19.8446 18.5799 19.73L16.6159 18.63C16.1731 18.85 15.7088 19.03 15.2231 19.17L14.667 21.243C14.609 21.4592 14.4752 21.6512 14.2869 21.7883C14.0986 21.9255 13.8666 22 13.6277 22H12.087C11.8481 22 11.6161 21.9255 11.4278 21.7883C11.2395 21.6512 11.1058 21.4592 11.0477 21.243L10.4916 19.17C10.0102 19.0312 9.5439 18.8504 9.09878 18.63L7.13485 19.73C6.93007 19.8446 6.69012 19.8921 6.45311 19.865C6.2161 19.8378 5.9956 19.7375 5.82664 19.58L4.73592 18.562C4.56718 18.4043 4.45972 18.1985 4.4306 17.9773C4.40149 17.7561 4.45238 17.5321 4.57521 17.341L5.75378 15.508C5.51768 15.0926 5.32397 14.6573 5.17521 14.208L2.95414 13.689C2.72262 13.6349 2.5171 13.5101 2.37017 13.3346C2.22324 13.1591 2.14331 12.9428 2.14307 12.72V11.282C2.14307 11.0591 2.22289 10.8425 2.36984 10.6668C2.51679 10.491 2.72245 10.3662 2.95414 10.312L5.17521 9.793C5.32521 9.33967 5.51807 8.90633 5.75378 8.493L4.57521 6.66C4.45238 6.46887 4.40149 6.24492 4.4306 6.02371C4.45972 5.80249 4.56718 5.5967 4.73592 5.439L5.82664 4.42C5.9956 4.26251 6.2161 4.16221 6.45311 4.13504C6.69012 4.10786 6.93007 4.15536 7.13485 4.27L9.09878 5.37C9.54164 5.15 10.0059 4.97 10.4916 4.83L11.0477 2.757C11.1057 2.54092 11.2393 2.3491 11.4274 2.21196C11.6155 2.07483 11.8473 2.00023 12.0859 2H13.6266C13.8655 2.00001 14.0975 2.0745 14.2858 2.21166C14.4741 2.34881 14.6079 2.54075 14.6659 2.757L15.222 4.83C15.7077 4.97 16.172 5.15 16.6149 5.37H16.6159ZM12.8574 14.8C13.653 14.8 14.4161 14.505 14.9787 13.9799C15.5413 13.4548 15.8574 12.7426 15.8574 12C15.8574 11.2574 15.5413 10.5452 14.9787 10.0201C14.4161 9.495 13.653 9.2 12.8574 9.2C12.0617 9.2 11.2986 9.495 10.736 10.0201C10.1734 10.5452 9.85735 11.2574 9.85735 12C9.85735 12.7426 10.1734 13.4548 10.736 13.9799C11.2986 14.505 12.0617 14.8 12.8574 14.8ZM12.8574 16C11.7207 16 10.6306 15.5786 9.82689 14.8284C9.02317 14.0783 8.57164 13.0609 8.57164 12C8.57164 10.9391 9.02317 9.92172 9.82689 9.17157C10.6306 8.42143 11.7207 8 12.8574 8C13.994 8 15.0841 8.42143 15.8878 9.17157C16.6915 9.92172 17.1431 10.9391 17.1431 12C17.1431 13.0609 16.6915 14.0783 15.8878 14.8284C15.0841 15.5786 13.994 16 12.8574 16Z" fill="#8F9BB3"/>
</svg>
